<svg xmlns="http://www.w3.org/2000/svg" width="160" height="25" viewBox="0 0 160 25"><g fill="#fff"><path d="M135.363 7.25c.164-.041.359-.086.584-.135a42.632 42.632 0 0 1 1.452-.288c.285-.053.563-.102.832-.146.305-.051.613-.096.938-.134.32-.037.654-.068 1.004-.095a30.935 30.935 0 0 1 2.207-.077c.285 0 .563.011.834.03.269.02.525.049.775.088.252.04.489.09.715.148a5.857 5.857 0 0 1 1.78.804 5.335 5.335 0 0 1 .691.562l.021-.013c.068-.043.14-.087.212-.13.077-.049.157-.096.233-.141a5.591 5.591 0 0 1 .597-.313 11.311 11.311 0 0 1 1.102-.438 16.908 16.908 0 0 1 .85-.255v.002c.137-.035.285-.074.455-.113a8.172 8.172 0 0 1 1.511-.214c.182-.009.357-.015.531-.015.346 0 .678.013.996.038.313.025.613.063.904.114.291.051.566.115.826.192.264.078.508.169.732.272a5.54 5.54 0 0 1 1.228.756 4.913 4.913 0 0 1 .94 1.024c.129.188.248.387.357.595.107.208.205.423.291.644.086.222.162.452.227.691.066.237.119.485.164.741.086.498.15 1.018.193 1.558.043.542.064 1.104.064 1.686v10.061h-3.951v-9.401c0-.506-.012-.97-.035-1.392a15.263 15.263 0 0 0-.111-1.166 5.34 5.34 0 0 0-.203-.934 3.747 3.747 0 0 0-.317-.738 2.519 2.519 0 0 0-.197-.292 2.226 2.226 0 0 0-.225-.248 2.313 2.313 0 0 0-.254-.204 2.318 2.318 0 0 0-.623-.297 3.317 3.317 0 0 0-.387-.096 4.714 4.714 0 0 0-.451-.059c-.16-.014-.33-.02-.51-.02-.258 0-.498.008-.727.023a7.756 7.756 0 0 0-.648.073 5.307 5.307 0 0 0-.57.12c-.18.048-.348.103-.498.164-.154.063-.305.127-.449.193a5.94 5.94 0 0 0-.58.3l-.047.029c.025.086.049.171.068.256.035.133.064.269.096.408.035.163.066.328.096.496.027.162.053.335.078.52.021.179.043.356.061.534.02.186.033.365.043.543a19.244 19.244 0 0 1 .035 1.125v10.061h-3.947v-9.399c0-.505-.014-.966-.041-1.388a11.718 11.718 0 0 0-.123-1.166 6.759 6.759 0 0 0-.092-.494 5.046 5.046 0 0 0-.269-.837 3.751 3.751 0 0 0-.177-.347 2.791 2.791 0 0 0-.194-.292 2.14 2.14 0 0 0-.769-.618 2.55 2.55 0 0 0-.332-.131 3.399 3.399 0 0 0-.383-.096 4.597 4.597 0 0 0-.438-.059 5.535 5.535 0 0 0-.494-.02 14.484 14.484 0 0 0-.983.031l-.254.017-.264.021-.254.021-.234.022-.234.025-.221.026-.205.029-.205.031-.182.031-.01.001V24.744h-3.949V7.327l.158-.039.156-.038zM127.523 13.564a5.406 5.406 0 0 0-.059-.602 5.004 5.004 0 0 0-.168-.729 3.845 3.845 0 0 0-.739-1.352 2.975 2.975 0 0 0-1.142-.865 3.435 3.435 0 0 0-.715-.218 4.417 4.417 0 0 0-.824-.073 4.41 4.41 0 0 0-.92.09 3.367 3.367 0 0 0-.789.269 4.38 4.38 0 0 0-.693.422 3.944 3.944 0 0 0-1.035 1.16 4.494 4.494 0 0 0-.351.728 6.734 6.734 0 0 0-.248.798c-.021.094-.045.191-.064.3a.813.813 0 0 1-.016.067h7.766v.004h-.003zm-11.982 2.047c0-.379.016-.748.043-1.106.029-.356.074-.704.133-1.042.057-.334.131-.66.219-.975s.191-.616.309-.907c.115-.289.242-.565.379-.827.137-.267.281-.52.438-.758.153-.241.319-.471.496-.689.176-.217.36-.423.557-.616a8.24 8.24 0 0 1 1.256-1.013 8.06 8.06 0 0 1 1.436-.722 9.083 9.083 0 0 1 1.535-.432 8.52 8.52 0 0 1 1.57-.145c.61 0 1.188.047 1.733.14a7.665 7.665 0 0 1 1.533.419c.481.188.928.423 1.336.704a6.281 6.281 0 0 1 1.989 2.258c.25.469.455.984.621 1.548.162.556.283 1.157.362 1.804.082.646.123 1.337.123 2.073v.499c0 .104-.004.21-.01.317l-.026.297-.022.174-.023.179h-11.863c.035.29.084.567.144.831.073.326.17.633.283.918.122.307.266.588.432.842a4.1 4.1 0 0 0 .56.689c.207.201.44.379.703.531.269.15.563.279.894.385.336.104.702.185 1.104.236.396.055.836.079 1.305.079.537 0 1.027-.021 1.471-.063a8.553 8.553 0 0 0 1.199-.196c.188-.045.357-.089.518-.132a10.958 10.958 0 0 0 .81-.256c.107-.039.207-.078.293-.117v-.001l.246-.111.246-.11.045.262.045.26.438 2.516.022.142.024.146-.135.068-.131.066a4.187 4.187 0 0 1-.375.164c-.146.055-.306.106-.479.162a13.59 13.59 0 0 1-.572.158c-.207.057-.433.108-.672.162-.242.057-.496.104-.763.146a14.877 14.877 0 0 1-1.668.167c-.301.015-.604.021-.9.021-.391 0-.77-.015-1.137-.043a11.011 11.011 0 0 1-2.051-.345 8.59 8.59 0 0 1-.914-.306 9.704 9.704 0 0 1-.832-.379 8.196 8.196 0 0 1-.76-.447 6.9 6.9 0 0 1-.688-.517 6.224 6.224 0 0 1-.608-.581 7.467 7.467 0 0 1-.987-1.341 8.08 8.08 0 0 1-.693-1.563 9.855 9.855 0 0 1-.236-.85 11.788 11.788 0 0 1-.17-.887 13.359 13.359 0 0 1-.135-1.886zM114.811 6.894a91.906 91.906 0 0 1-1.43 4.847 84.76 84.76 0 0 1-1.656 4.646c-.281.721-.572 1.454-.873 2.199a151.66 151.66 0 0 1-1.715 4.075 94.173 94.173 0 0 1-.83 1.848l-.055.122-.057.12H104.845l-.059-.12-.057-.122c-.273-.601-.553-1.217-.83-1.849a152.323 152.323 0 0 1-1.713-4.076 146.76 146.76 0 0 1-.873-2.199 84.52 84.52 0 0 1-1.656-4.646 93.562 93.562 0 0 1-1.432-4.847l-.065-.261-.068-.255h4.221l.039.157.037.159c.061.247.133.527.211.838a68.094 68.094 0 0 0 .475 1.744c.088.31.178.618.268.926.084.284.18.598.283.939a88 88 0 0 0 .578 1.826c.105.322.209.635.309.934.088.258.191.561.313.906.119.348.225.646.313.896.094.257.199.556.32.893.109.308.215.593.313.854.106.287.209.561.308.816l.312.803c.059.146.127.314.2.504l.002.004c.101-.247.201-.502.306-.766.172-.447.347-.9.517-1.361a144.717 144.717 0 0 0 .631-1.744c.088-.252.189-.551.313-.896.119-.347.224-.648.312-.908l.312-.932c.099-.303.194-.605.291-.908.09-.284.187-.59.285-.919a105.316 105.316 0 0 0 .797-2.748c.076-.281.151-.568.229-.86.08-.313.148-.591.211-.838l.037-.159.039-.157h4.086l-.066.255-.083.26zM43.569 7.25c.171-.042.369-.088.595-.137.211-.046.436-.093.676-.141a47.19 47.19 0 0 1 1.615-.291c.307-.052.622-.096.944-.134a27.41 27.41 0 0 1 1.009-.095 31.044 31.044 0 0 1 2.212-.077c.354 0 .697.013 1.028.038.329.025.645.063.945.113.304.051.593.114.866.191.274.076.534.167.779.27.246.104.479.217.698.34a5.916 5.916 0 0 1 1.185.874 5.51 5.51 0 0 1 .888 1.116c.125.204.239.417.343.641a7.29 7.29 0 0 1 .484 1.43c.115.502.202 1.027.261 1.577.058.553.086 1.125.086 1.721v10.061h-3.951v-9.401c0-.52-.017-.998-.052-1.437a10.688 10.688 0 0 0-.158-1.199 5.484 5.484 0 0 0-.268-.945 3.455 3.455 0 0 0-.177-.383 2.605 2.605 0 0 0-.439-.607 2.575 2.575 0 0 0-.92-.585 3.782 3.782 0 0 0-.401-.124 5.16 5.16 0 0 0-.455-.09 7.127 7.127 0 0 0-1.079-.074 15.626 15.626 0 0 0-1.016.031h-.001a15.405 15.405 0 0 0-.517.038l-.255.021-.234.022-.229.025-.22.026-.198.029a7.42 7.42 0 0 0-.198.031l-.201.035-.009.001V24.746h-3.95V7.327l.158-.039.156-.038zM76.707 23.877a41.666 41.666 0 0 1-2.869.571c-.301.052-.613.097-.936.134a25.306 25.306 0 0 1-2.078.154c-.38.014-.759.021-1.136.021-.344 0-.678-.014-.999-.038a9.166 9.166 0 0 1-1.778-.301v-.008a6.58 6.58 0 0 1-2.103-1.018 5.637 5.637 0 0 1-1.469-1.606 6.317 6.317 0 0 1-.353-.639 7.29 7.29 0 0 1-.289-.687 8.338 8.338 0 0 1-.226-.733 11.22 11.22 0 0 1-.287-1.572 14.557 14.557 0 0 1-.095-1.72V6.377H66.041v9.402c0 .516.02.988.06 1.42.039.43.101.826.182 1.188.078.35.175.662.289.938.114.272.246.511.396.711.144.194.313.364.508.511.196.146.417.271.666.368.256.104.54.181.851.231.314.052.658.076 1.033.076a15.451 15.451 0 0 0 1.017-.031c.07-.004.155-.01.25-.018l.26-.021.25-.021.228-.021c.146-.017.297-.032.45-.051.161-.02.294-.033.396-.047.055-.009.108-.017.162-.022l.031-.007V6.377h3.951V23.8l-.157.038-.157.039zM95.742 23.877a37.261 37.261 0 0 1-2.036.425c-.287.055-.563.104-.834.146-.301.052-.611.097-.938.134a24.323 24.323 0 0 1-2.078.154c-.381.014-.758.021-1.135.021-.346 0-.678-.014-1-.038a9.143 9.143 0 0 1-1.778-.301v-.008a6.518 6.518 0 0 1-1.474-.613 6.42 6.42 0 0 1-.629-.405 5.42 5.42 0 0 1-1.051-1.015 6.056 6.056 0 0 1-.42-.591 6.96 6.96 0 0 1-.639-1.326 8.475 8.475 0 0 1-.229-.733 13.362 13.362 0 0 1-.168-.766c-.047-.268-.088-.533-.118-.806a14.645 14.645 0 0 1-.094-1.72V6.377h3.951v9.402c0 .516.02.988.061 1.42.039.43.1.826.182 1.188.078.35.176.662.289.938.113.272.246.511.396.711.143.194.313.364.508.511s.416.271.664.368c.256.104.541.181.852.231.314.052.658.076 1.033.076a15.31 15.31 0 0 0 1.018-.031 15.962 15.962 0 0 0 .512-.039l.248-.021.229-.021c.146-.017.297-.032.451-.051.159-.02.293-.033.396-.047.055-.009.108-.017.162-.022l.03-.007V6.377h3.951V23.8l-.154.039-.158.038z"/></g><g fill="#fff"><path class="border" d="M8.807 7.905c.3 0 .595.016.886.046a9.187 9.187 0 0 1 18.253 1.486l-.002.153a7.653 7.653 0 0 1 9.187 7.5 7.653 7.653 0 0 1-7.653 7.655H8.807a8.421 8.421 0 0 1 0-16.84z"/><path class="cloud" d="M8.844 10.184c-3.401 0-6.158 2.756-6.158 6.158S5.442 22.5 8.844 22.5h20.761c2.978 0 5.388-2.413 5.388-5.39a5.387 5.387 0 0 0-6.47-5.281l-2.806.572.048-2.863.001-.116a6.926 6.926 0 0 0-6.928-6.927c-3.39 0-6.294 2.46-6.836 5.804l-.348 2.141-2.158-.223a6.713 6.713 0 0 0-.652-.033z"/></g></svg>